<mxfile host="app.diagrams.net" modified="2023-09-16T02:47:20.646Z" agent="Mozilla/5.0 (X11; Ubuntu; Linux x86_64; rv:109.0) Gecko/20100101 Firefox/117.0" etag="FNEgsAbVBmuafqCOl_ed" version="21.7.5" type="device">
  <diagram name="PÃ¡gina-1" id="gg9tdC-r6BuqTYxbkAkA">
    <mxGraphModel dx="1278" dy="483" grid="1" gridSize="10" guides="1" tooltips="1" connect="1" arrows="1" fold="1" page="1" pageScale="1" pageWidth="827" pageHeight="1169" math="0" shadow="0">
      <root>
        <mxCell id="0" />
        <mxCell id="1" parent="0" />
        <mxCell id="FMCRZyyjpiOiLZQY8sUc-34" style="edgeStyle=orthogonalEdgeStyle;rounded=0;orthogonalLoop=1;jettySize=auto;html=1;exitX=0.25;exitY=1;exitDx=0;exitDy=0;entryX=0.5;entryY=0;entryDx=0;entryDy=0;" edge="1" parent="1" source="FMCRZyyjpiOiLZQY8sUc-14" target="FMCRZyyjpiOiLZQY8sUc-22">
          <mxGeometry relative="1" as="geometry" />
        </mxCell>
        <mxCell id="FMCRZyyjpiOiLZQY8sUc-35" style="edgeStyle=orthogonalEdgeStyle;rounded=0;orthogonalLoop=1;jettySize=auto;html=1;exitX=0.5;exitY=1;exitDx=0;exitDy=0;entryX=0.5;entryY=0;entryDx=0;entryDy=0;" edge="1" parent="1" source="FMCRZyyjpiOiLZQY8sUc-14" target="FMCRZyyjpiOiLZQY8sUc-26">
          <mxGeometry relative="1" as="geometry" />
        </mxCell>
        <mxCell id="FMCRZyyjpiOiLZQY8sUc-37" style="edgeStyle=orthogonalEdgeStyle;rounded=0;orthogonalLoop=1;jettySize=auto;html=1;exitX=0.75;exitY=1;exitDx=0;exitDy=0;entryX=0.5;entryY=0;entryDx=0;entryDy=0;" edge="1" parent="1" source="FMCRZyyjpiOiLZQY8sUc-14" target="FMCRZyyjpiOiLZQY8sUc-30">
          <mxGeometry relative="1" as="geometry" />
        </mxCell>
        <mxCell id="FMCRZyyjpiOiLZQY8sUc-14" value="Iphone" style="swimlane;fontStyle=0;childLayout=stackLayout;horizontal=1;startSize=26;horizontalStack=0;resizeParent=1;resizeParentMax=0;resizeLast=0;collapsible=1;marginBottom=0;align=center;fontSize=14;" vertex="1" parent="1">
          <mxGeometry x="200" y="100" width="160" height="116" as="geometry" />
        </mxCell>
        <mxCell id="FMCRZyyjpiOiLZQY8sUc-15" value="cor" style="text;strokeColor=none;fillColor=none;spacingLeft=4;spacingRight=4;overflow=hidden;rotatable=0;points=[[0,0.5],[1,0.5]];portConstraint=eastwest;fontSize=12;whiteSpace=wrap;html=1;" vertex="1" parent="FMCRZyyjpiOiLZQY8sUc-14">
          <mxGeometry y="26" width="160" height="30" as="geometry" />
        </mxCell>
        <mxCell id="FMCRZyyjpiOiLZQY8sUc-16" value="versao" style="text;strokeColor=none;fillColor=none;spacingLeft=4;spacingRight=4;overflow=hidden;rotatable=0;points=[[0,0.5],[1,0.5]];portConstraint=eastwest;fontSize=12;whiteSpace=wrap;html=1;" vertex="1" parent="FMCRZyyjpiOiLZQY8sUc-14">
          <mxGeometry y="56" width="160" height="30" as="geometry" />
        </mxCell>
        <mxCell id="FMCRZyyjpiOiLZQY8sUc-17" value="capacidade" style="text;strokeColor=none;fillColor=none;spacingLeft=4;spacingRight=4;overflow=hidden;rotatable=0;points=[[0,0.5],[1,0.5]];portConstraint=eastwest;fontSize=12;whiteSpace=wrap;html=1;" vertex="1" parent="FMCRZyyjpiOiLZQY8sUc-14">
          <mxGeometry y="86" width="160" height="30" as="geometry" />
        </mxCell>
        <mxCell id="FMCRZyyjpiOiLZQY8sUc-22" value="ReprodutorMusical" style="swimlane;fontStyle=0;childLayout=stackLayout;horizontal=1;startSize=26;horizontalStack=0;resizeParent=1;resizeParentMax=0;resizeLast=0;collapsible=1;marginBottom=0;align=center;fontSize=14;" vertex="1" parent="1">
          <mxGeometry x="90" y="370" width="160" height="116" as="geometry" />
        </mxCell>
        <mxCell id="FMCRZyyjpiOiLZQY8sUc-23" value="tocar" style="text;strokeColor=none;fillColor=none;spacingLeft=4;spacingRight=4;overflow=hidden;rotatable=0;points=[[0,0.5],[1,0.5]];portConstraint=eastwest;fontSize=12;whiteSpace=wrap;html=1;" vertex="1" parent="FMCRZyyjpiOiLZQY8sUc-22">
          <mxGeometry y="26" width="160" height="30" as="geometry" />
        </mxCell>
        <mxCell id="FMCRZyyjpiOiLZQY8sUc-24" value="pausar" style="text;strokeColor=none;fillColor=none;spacingLeft=4;spacingRight=4;overflow=hidden;rotatable=0;points=[[0,0.5],[1,0.5]];portConstraint=eastwest;fontSize=12;whiteSpace=wrap;html=1;" vertex="1" parent="FMCRZyyjpiOiLZQY8sUc-22">
          <mxGeometry y="56" width="160" height="30" as="geometry" />
        </mxCell>
        <mxCell id="FMCRZyyjpiOiLZQY8sUc-25" value="selecionarMusica" style="text;strokeColor=none;fillColor=none;spacingLeft=4;spacingRight=4;overflow=hidden;rotatable=0;points=[[0,0.5],[1,0.5]];portConstraint=eastwest;fontSize=12;whiteSpace=wrap;html=1;" vertex="1" parent="FMCRZyyjpiOiLZQY8sUc-22">
          <mxGeometry y="86" width="160" height="30" as="geometry" />
        </mxCell>
        <mxCell id="FMCRZyyjpiOiLZQY8sUc-26" value="Telefonia" style="swimlane;fontStyle=0;childLayout=stackLayout;horizontal=1;startSize=26;horizontalStack=0;resizeParent=1;resizeParentMax=0;resizeLast=0;collapsible=1;marginBottom=0;align=center;fontSize=14;" vertex="1" parent="1">
          <mxGeometry x="360" y="396" width="160" height="116" as="geometry" />
        </mxCell>
        <mxCell id="FMCRZyyjpiOiLZQY8sUc-27" value="ligar" style="text;strokeColor=none;fillColor=none;spacingLeft=4;spacingRight=4;overflow=hidden;rotatable=0;points=[[0,0.5],[1,0.5]];portConstraint=eastwest;fontSize=12;whiteSpace=wrap;html=1;" vertex="1" parent="FMCRZyyjpiOiLZQY8sUc-26">
          <mxGeometry y="26" width="160" height="30" as="geometry" />
        </mxCell>
        <mxCell id="FMCRZyyjpiOiLZQY8sUc-28" value="atender" style="text;strokeColor=none;fillColor=none;spacingLeft=4;spacingRight=4;overflow=hidden;rotatable=0;points=[[0,0.5],[1,0.5]];portConstraint=eastwest;fontSize=12;whiteSpace=wrap;html=1;" vertex="1" parent="FMCRZyyjpiOiLZQY8sUc-26">
          <mxGeometry y="56" width="160" height="30" as="geometry" />
        </mxCell>
        <mxCell id="FMCRZyyjpiOiLZQY8sUc-29" value="iniciarCorrerioVoz" style="text;strokeColor=none;fillColor=none;spacingLeft=4;spacingRight=4;overflow=hidden;rotatable=0;points=[[0,0.5],[1,0.5]];portConstraint=eastwest;fontSize=12;whiteSpace=wrap;html=1;" vertex="1" parent="FMCRZyyjpiOiLZQY8sUc-26">
          <mxGeometry y="86" width="160" height="30" as="geometry" />
        </mxCell>
        <mxCell id="FMCRZyyjpiOiLZQY8sUc-30" value="Navegador" style="swimlane;fontStyle=0;childLayout=stackLayout;horizontal=1;startSize=26;horizontalStack=0;resizeParent=1;resizeParentMax=0;resizeLast=0;collapsible=1;marginBottom=0;align=center;fontSize=14;" vertex="1" parent="1">
          <mxGeometry x="560" y="268" width="160" height="116" as="geometry" />
        </mxCell>
        <mxCell id="FMCRZyyjpiOiLZQY8sUc-31" value="atualizarPagina" style="text;strokeColor=none;fillColor=none;spacingLeft=4;spacingRight=4;overflow=hidden;rotatable=0;points=[[0,0.5],[1,0.5]];portConstraint=eastwest;fontSize=12;whiteSpace=wrap;html=1;" vertex="1" parent="FMCRZyyjpiOiLZQY8sUc-30">
          <mxGeometry y="26" width="160" height="30" as="geometry" />
        </mxCell>
        <mxCell id="FMCRZyyjpiOiLZQY8sUc-32" value="adicionarNovaAba" style="text;strokeColor=none;fillColor=none;spacingLeft=4;spacingRight=4;overflow=hidden;rotatable=0;points=[[0,0.5],[1,0.5]];portConstraint=eastwest;fontSize=12;whiteSpace=wrap;html=1;" vertex="1" parent="FMCRZyyjpiOiLZQY8sUc-30">
          <mxGeometry y="56" width="160" height="30" as="geometry" />
        </mxCell>
        <mxCell id="FMCRZyyjpiOiLZQY8sUc-33" value="exibirPagina" style="text;strokeColor=none;fillColor=none;spacingLeft=4;spacingRight=4;overflow=hidden;rotatable=0;points=[[0,0.5],[1,0.5]];portConstraint=eastwest;fontSize=12;whiteSpace=wrap;html=1;" vertex="1" parent="FMCRZyyjpiOiLZQY8sUc-30">
          <mxGeometry y="86" width="160" height="30" as="geometry" />
        </mxCell>
      </root>
    </mxGraphModel>
  </diagram>
</mxfile>
